<svg width="58" height="58" viewBox="0 0 58 58" fill="none" xmlns="http://www.w3.org/2000/svg">
<path d="M29 58C45.0163 58 58 45.0163 58 29C58 12.9837 45.0163 0 29 0C12.9837 0 0 12.9837 0 29C0 45.0163 12.9837 58 29 58Z" fill="#FF8000"/>
<path d="M29 57.5C44.7401 57.5 57.5 44.7401 57.5 29C57.5 13.2599 44.7401 0.5 29 0.5C13.2599 0.5 0.5 13.2599 0.5 29C0.5 44.7401 13.2599 57.5 29 57.5Z" stroke="white"/>
<mask id="mask0_2005_11" style="mask-type:luminance" maskUnits="userSpaceOnUse" x="15" y="14" width="28" height="33">
<path d="M42.741 14.092H15.259V46.908H42.741V14.092Z" fill="white"/>
</mask>
<g mask="url(#mask0_2005_11)">
<path d="M29 46.908L28.047 46.092C26.733 44.992 15.259 35.081 15.259 27.833C15.259 24.1887 16.7067 20.6936 19.2836 18.1167C21.8606 15.5397 25.3556 14.092 29 14.092C32.6443 14.092 36.1394 15.5397 38.7163 18.1167C41.2933 20.6936 42.741 24.1887 42.741 27.833C42.741 35.081 31.267 44.992 29.959 46.092L29 46.908ZM29 17.063C26.1446 17.0662 23.407 18.2019 21.3879 20.221C19.3689 22.2401 18.2331 24.9776 18.23 27.833C18.23 32.387 25.289 39.661 29 42.99C32.711 39.659 39.77 32.381 39.77 27.833C39.7668 24.9776 38.6311 22.2401 36.612 20.221C34.5929 18.2019 31.8554 17.0662 29 17.063Z" fill="white"/>
<path d="M29 33.28C27.9227 33.28 26.8695 32.9605 25.9738 32.362C25.078 31.7635 24.3799 30.9128 23.9676 29.9175C23.5553 28.9222 23.4475 27.8269 23.6576 26.7703C23.8678 25.7137 24.3866 24.7432 25.1484 23.9814C25.9101 23.2196 26.8807 22.7008 27.9373 22.4907C28.9939 22.2805 30.0891 22.3883 31.0845 22.8006C32.0798 23.2129 32.9305 23.911 33.529 24.8068C34.1275 25.7026 34.447 26.7557 34.447 27.833C34.447 29.2776 33.8731 30.6631 32.8516 31.6846C31.8301 32.7061 30.4446 33.28 29 33.28ZM29 25.11C28.4614 25.11 27.935 25.2697 27.4872 25.5689C27.0394 25.8681 26.6903 26.2934 26.4842 26.7909C26.2782 27.2885 26.2242 27.836 26.3293 28.3642C26.4344 28.8924 26.6937 29.3776 27.0745 29.7584C27.4553 30.1393 27.9405 30.3986 28.4687 30.5037C28.997 30.6087 29.5445 30.5548 30.042 30.3487C30.5396 30.1426 30.9649 29.7936 31.2641 29.3458C31.5633 28.898 31.723 28.3716 31.723 27.833C31.723 27.4754 31.6525 27.1213 31.5157 26.7909C31.3789 26.4606 31.1783 26.1604 30.9254 25.9075C30.6726 25.6547 30.3724 25.4541 30.042 25.3173C29.7117 25.1804 29.3576 25.11 29 25.11Z" fill="white"/>
</g>
</svg>
