<svg width="23" height="23" viewBox="0 0 23 23" fill="none" xmlns="http://www.w3.org/2000/svg">
<g opacity="0.6">
<mask id="mask0_2004_7" style="mask-type:luminance" maskUnits="userSpaceOnUse" x="0" y="0" width="23" height="23">
<path d="M22.9538 0.35791H0.47583V22.9099H22.9538V0.35791Z" fill="white"/>
</mask>
<g mask="url(#mask0_2004_7)">
<path d="M11.7148 22.9099C9.48308 22.9172 7.29936 22.2621 5.44017 21.0275C3.58098 19.793 2.12995 18.0345 1.27082 15.9747C0.411688 13.9149 0.183104 11.6465 0.614004 9.45678C1.0449 7.26702 2.1159 5.25437 3.6914 3.67369C5.26689 2.09301 7.27601 1.0154 9.46435 0.577303C11.6527 0.139209 13.9218 0.36034 15.9844 1.2127C18.047 2.06505 19.8102 3.51029 21.0509 5.36542C22.2915 7.22054 22.9538 9.4021 22.9538 11.6339C22.9554 14.6185 21.773 17.4819 19.666 19.5959C17.559 21.7098 14.6995 22.9016 11.7148 22.9099ZM11.7148 1.05585C9.62122 1.04893 7.57265 1.66342 5.8285 2.82153C4.08436 3.97964 2.72311 5.62926 1.91711 7.56152C1.11112 9.49377 0.896639 11.6217 1.30083 13.676C1.70503 15.7302 2.70971 17.6183 4.18767 19.1012C5.66562 20.584 7.55037 21.595 9.60325 22.006C11.6561 22.417 13.7848 22.2095 15.7197 21.41C17.6546 20.6104 19.3088 19.2546 20.4727 17.5143C21.6365 15.774 22.2578 13.7275 22.2578 11.6339C22.2594 8.83396 21.1503 6.14778 19.1737 4.16468C17.1972 2.18158 14.5147 1.06353 11.7148 1.05585Z" fill="#036E8A"/>
</g>
</g>
<path d="M7.46191 10.5862V10.2072C7.46191 10.1772 7.47391 10.1482 7.47691 10.1192C7.51808 9.66417 7.67357 9.22697 7.92892 8.84815C8.129 8.54727 8.39845 8.29887 8.71458 8.12388C9.03072 7.94889 9.38428 7.85243 9.74548 7.84263C10.1067 7.83282 10.465 7.90997 10.7901 8.06755C11.1153 8.22514 11.3978 8.45856 11.6139 8.74815C11.6459 8.78715 11.6769 8.82815 11.7139 8.87415C11.7529 8.82415 11.7819 8.78415 11.8139 8.74615C12.0622 8.40557 12.4037 8.14404 12.7972 7.99306C13.1907 7.84207 13.6195 7.80807 14.0319 7.89515C14.4377 7.96554 14.8163 8.14615 15.1264 8.41722C15.4364 8.6883 15.666 9.0394 15.7899 9.43215C15.9498 9.86004 16.0029 10.3204 15.9447 10.7735C15.8865 11.2265 15.7187 11.6586 15.4559 12.0322C15.163 12.477 14.8119 12.8805 14.4119 13.2322C13.6339 13.9322 12.8439 14.6122 12.0559 15.2982C12.009 15.3433 11.9537 15.3787 11.8931 15.4023C11.8325 15.426 11.7678 15.4375 11.7028 15.4361C11.6378 15.4347 11.5736 15.4205 11.5141 15.3942C11.4546 15.368 11.4008 15.3302 11.3559 15.2832C10.7499 14.7598 10.1446 14.2358 9.53992 13.7112C9.02307 13.28 8.55374 12.795 8.13992 12.2642C7.8702 11.9174 7.67326 11.5198 7.56091 11.0952C7.52091 10.9312 7.49992 10.7632 7.47092 10.5952" fill="#036E8A"/>
</svg>
