<svg width="24" height="23" viewBox="0 0 24 23" fill="none" xmlns="http://www.w3.org/2000/svg">
<g opacity="0.6">
<mask id="mask0_2004_5" style="mask-type:luminance" maskUnits="userSpaceOnUse" x="0" y="0" width="24" height="23">
<path d="M23.053 0.35791H0.574951V22.9099H23.053V0.35791Z" fill="white"/>
</mask>
<g mask="url(#mask0_2004_5)">
<path d="M11.814 22.9099C9.58221 22.9172 7.39848 22.2621 5.53929 21.0275C3.6801 19.793 2.22907 18.0345 1.36994 15.9747C0.510812 13.9149 0.282224 11.6465 0.713124 9.45678C1.14402 7.26702 2.21503 5.25437 3.79052 3.67369C5.36602 2.09301 7.37514 1.0154 9.56347 0.577303C11.7518 0.139209 14.0209 0.36034 16.0835 1.2127C18.1461 2.06505 19.9093 3.51029 21.15 5.36542C22.3907 7.22054 23.0529 9.4021 23.053 11.6339C23.0546 14.6185 21.8721 17.4819 19.7651 19.5959C17.6581 21.7098 14.7986 22.9016 11.814 22.9099ZM11.814 1.05585C9.72034 1.04893 7.67177 1.66342 5.92762 2.82153C4.18348 3.97964 2.82223 5.62926 2.01623 7.56152C1.21024 9.49377 0.995762 11.6217 1.39995 13.676C1.80415 15.7302 2.80883 17.6183 4.28679 19.1012C5.76475 20.584 7.6495 21.595 9.70238 22.006C11.7553 22.417 13.8839 22.2095 15.8189 21.41C17.7538 20.6104 19.4079 19.2546 20.5718 17.5143C21.7357 15.774 22.3569 13.7275 22.357 11.6339C22.3586 8.83396 21.2494 6.14778 19.2729 4.16468C17.2963 2.18158 14.6138 1.06353 11.814 1.05585Z" fill="#036E8A"/>
</g>
</g>
<path d="M9.41385 13.7742H8.65284C8.5411 13.7798 8.42942 13.7619 8.32503 13.7216C8.22063 13.6814 8.12584 13.6197 8.04677 13.5405C7.9677 13.4614 7.90612 13.3665 7.866 13.2621C7.82588 13.1576 7.80811 13.0459 7.81385 12.9342C7.81385 11.5342 7.81385 10.1322 7.81385 8.72819C7.80798 8.61646 7.82561 8.50474 7.86561 8.40024C7.90561 8.29575 7.96708 8.20081 8.04605 8.12156C8.12502 8.0423 8.21974 7.98049 8.32409 7.94012C8.42844 7.89975 8.54009 7.88172 8.65185 7.88719H14.9768C15.0886 7.88172 15.2003 7.89975 15.3046 7.94012C15.4089 7.98049 15.5037 8.0423 15.5826 8.12156C15.6616 8.20081 15.7231 8.29575 15.7631 8.40024C15.8031 8.50474 15.8207 8.61646 15.8148 8.72819C15.8148 10.1282 15.8148 11.5302 15.8148 12.9342C15.8206 13.0459 15.8028 13.1576 15.7627 13.2621C15.7226 13.3665 15.661 13.4614 15.5819 13.5405C15.5029 13.6197 15.4081 13.6814 15.3037 13.7216C15.1993 13.7619 15.0876 13.7798 14.9758 13.7742C13.9372 13.7742 12.8982 13.7742 11.8588 13.7742C11.8053 13.7755 11.7535 13.7937 11.7108 13.8262C11.1175 14.2982 10.5252 14.7725 9.93385 15.2492C9.90584 15.2722 9.87785 15.2952 9.84885 15.3172C9.81025 15.3493 9.76314 15.3696 9.71325 15.3754C9.66336 15.3813 9.61284 15.3725 9.56784 15.3502C9.52049 15.3286 9.48065 15.2933 9.4534 15.249C9.42615 15.2047 9.41273 15.1532 9.41484 15.1012L9.41385 13.7742ZM11.8148 10.5632H13.3898C13.5788 10.5632 13.7678 10.5632 13.9568 10.5632C14.0229 10.5616 14.086 10.5354 14.1337 10.4897C14.1814 10.444 14.2104 10.3821 14.2148 10.3162C14.2193 10.2515 14.2002 10.1874 14.1611 10.1357C14.1219 10.0841 14.0653 10.0483 14.0018 10.0352C13.9661 10.0296 13.93 10.0276 13.8938 10.0292H9.72985C9.70485 10.0292 9.67984 10.0292 9.65484 10.0292C9.60432 10.0324 9.55583 10.0503 9.51533 10.0807C9.47483 10.111 9.44407 10.1526 9.42685 10.2002C9.41035 10.242 9.40471 10.2873 9.41046 10.3319C9.41621 10.3764 9.43315 10.4188 9.45971 10.4551C9.48628 10.4913 9.52159 10.5202 9.56236 10.5391C9.60312 10.5581 9.64802 10.5663 9.69284 10.5632C10.3982 10.5632 11.1038 10.5632 11.8098 10.5632M10.7428 11.6332C11.0908 11.6332 11.4368 11.6332 11.7848 11.6332C11.8452 11.632 11.9043 11.6159 11.9568 11.5862C12.0051 11.557 12.042 11.5124 12.0618 11.4596C12.0816 11.4068 12.083 11.3489 12.0658 11.2952C12.0508 11.236 12.0158 11.1839 11.9668 11.1475C11.9178 11.1111 11.8578 11.0926 11.7968 11.0952H9.71785C9.67965 11.09 9.64077 11.093 9.60384 11.104C9.5669 11.115 9.53275 11.1339 9.5037 11.1592C9.47465 11.1846 9.45136 11.2158 9.4354 11.2509C9.41944 11.286 9.41119 11.3241 9.41119 11.3627C9.41119 11.4012 9.41944 11.4393 9.4354 11.4744C9.45136 11.5095 9.47465 11.5408 9.5037 11.5662C9.53275 11.5915 9.5669 11.6103 9.60384 11.6214C9.64077 11.6324 9.67965 11.6354 9.71785 11.6302H10.7428" fill="#036E8A"/>
</svg>
