<svg width="23" height="23" viewBox="0 0 23 23" fill="none" xmlns="http://www.w3.org/2000/svg">
<g opacity="0.6">
<mask id="mask0_2004_8" style="mask-type:luminance" maskUnits="userSpaceOnUse" x="0" y="0" width="23" height="23">
<path d="M22.903 0.0898438H0.426025V22.6418H22.903V0.0898438Z" fill="white"/>
</mask>
<g mask="url(#mask0_2004_8)">
<path d="M11.664 22.6428C9.43205 22.6503 7.24804 21.9953 5.38855 20.7608C3.52907 19.5262 2.07775 17.7677 1.21839 15.7077C0.359033 13.6478 0.130281 11.3792 0.561105 9.18916C0.99193 6.99914 2.06295 4.98622 3.63854 3.4053C5.21414 1.82438 7.22343 0.746568 9.41199 0.308353C11.6005 -0.129861 13.8699 0.0912311 15.9327 0.943633C17.9956 1.79603 19.759 3.2414 20.9998 5.09671C22.2407 6.95202 22.903 9.13381 22.903 11.3658C22.9049 14.3506 21.7226 17.2143 19.6156 19.3285C17.5085 21.4426 14.6489 22.6346 11.664 22.6428ZM11.664 0.789808C9.57043 0.782881 7.52185 1.39738 5.77771 2.55548C4.03357 3.71359 2.67231 5.36322 1.86632 7.29547C1.06033 9.22773 0.845846 11.3557 1.25004 13.4099C1.65423 15.4642 2.65892 17.3523 4.13687 18.8351C5.61483 20.318 7.49958 21.3289 9.55246 21.7399C11.6053 22.1509 13.734 21.9435 15.6689 21.1439C17.6039 20.3443 19.258 18.9885 20.4219 17.2483C21.5858 15.508 22.207 13.4614 22.207 11.3678C22.2086 8.56792 21.0995 5.88173 19.1229 3.89863C17.1464 1.91553 14.4639 0.797488 11.664 0.789808Z" fill="#036E8A"/>
</g>
</g>
<path d="M14.744 10.9292H12.366V8.54424C12.366 8.35859 12.2923 8.18054 12.161 8.04926C12.0297 7.91799 11.8517 7.84424 11.666 7.84424C11.4804 7.84424 11.3023 7.91799 11.1711 8.04926C11.0398 8.18054 10.966 8.35859 10.966 8.54424V10.9302H8.58804C8.4012 10.9302 8.22201 11.0045 8.08989 11.1366C7.95777 11.2687 7.88354 11.4479 7.88354 11.6347C7.88354 11.8216 7.95777 12.0008 8.08989 12.1329C8.22201 12.265 8.4012 12.3392 8.58804 12.3392H10.966V14.7252C10.966 14.9109 11.0398 15.0889 11.1711 15.2202C11.3023 15.3515 11.4804 15.4252 11.666 15.4252C11.8517 15.4252 12.0297 15.3515 12.161 15.2202C12.2923 15.0889 12.366 14.9109 12.366 14.7252V12.3392H14.744C14.9309 12.3392 15.1101 12.265 15.2422 12.1329C15.3743 12.0008 15.4485 11.8216 15.4485 11.6347C15.4485 11.4479 15.3743 11.2687 15.2422 11.1366C15.1101 11.0045 14.9309 10.9302 14.744 10.9302" fill="#036E8A"/>
</svg>
