<svg width="28" height="29" viewBox="0 0 28 29" fill="none" xmlns="http://www.w3.org/2000/svg">
<mask id="mask0_1_98" style="mask-type:luminance" maskUnits="userSpaceOnUse" x="0" y="0" width="28" height="29">
<path d="M27.86 0.853027H0.566956V28.146H27.86V0.853027Z" fill="white"/>
</mask>
<g mask="url(#mask0_1_98)">
<path d="M27.542 26.2211L20.76 19.4391C22.6082 17.1786 23.5169 14.2941 23.2981 11.3824C23.0793 8.47065 21.7497 5.75441 19.5844 3.79548C17.419 1.83655 14.5836 0.78481 11.6646 0.857809C8.74553 0.930807 5.96622 2.12296 3.90151 4.18767C1.83679 6.25238 0.644644 9.03169 0.571646 11.9507C0.498647 14.8698 1.55038 17.7052 3.50931 19.8705C5.46824 22.0359 8.18449 23.3654 11.0962 23.5843C14.008 23.8031 16.8924 22.8944 19.153 21.0461L25.935 27.8281C26.1481 28.0412 26.4371 28.1609 26.7385 28.1609C27.0398 28.1609 27.3289 28.0412 27.542 27.8281C27.7551 27.615 27.8748 27.326 27.8748 27.0246C27.8748 26.7232 27.7551 26.4342 27.542 26.2211ZM11.967 21.3431C10.1691 21.3431 8.41167 20.81 6.91682 19.8112C5.42198 18.8124 4.25689 17.3927 3.56889 15.7317C2.88089 14.0707 2.70088 12.243 3.05162 10.4798C3.40236 8.71646 4.2681 7.09678 5.53936 5.82552C6.81062 4.55426 8.4303 3.68852 10.1936 3.33778C11.9569 2.98704 13.7846 3.16706 15.4456 3.85506C17.1065 4.54306 18.5262 5.70815 19.525 7.20299C20.5238 8.69783 21.057 10.4553 21.057 12.2531C21.057 14.6639 20.0993 16.976 18.3946 18.6807C16.6899 20.3854 14.3778 21.3431 11.967 21.3431Z" fill="#036E8A"/>
</g>
</svg>
