<svg width="23" height="23" viewBox="0 0 23 23" fill="none" xmlns="http://www.w3.org/2000/svg">
<g opacity="0.6">
<mask id="mask0_2004_6" style="mask-type:luminance" maskUnits="userSpaceOnUse" x="0" y="0" width="24" height="23">
<path d="M23.0029 0.35791H0.525879V22.9099H23.0029V0.35791Z" fill="white"/>
</mask>
<g mask="url(#mask0_2004_6)">
<path d="M11.7639 22.9099C9.53213 22.9172 7.3484 22.2621 5.48921 21.0275C3.63002 19.793 2.17899 18.0345 1.31986 15.9747C0.460733 13.9149 0.232145 11.6465 0.663045 9.45678C1.09394 7.26702 2.16495 5.25437 3.74044 3.67369C5.31594 2.09301 7.32506 1.0154 9.51339 0.577303C11.7017 0.139209 13.9708 0.36034 16.0334 1.2127C18.096 2.06505 19.8593 3.51029 21.0999 5.36542C22.3406 7.22054 23.0029 9.4021 23.0029 11.6339C23.0045 14.6185 21.8221 17.4819 19.7151 19.5959C17.608 21.7098 14.7485 22.9016 11.7639 22.9099ZM11.7639 1.05585C9.67026 1.04893 7.62169 1.66342 5.87754 2.82153C4.1334 3.97964 2.77215 5.62926 1.96616 7.56152C1.16016 9.49377 0.945684 11.6217 1.34988 13.676C1.75407 15.7302 2.75876 17.6183 4.23671 19.1012C5.71467 20.584 7.59942 21.595 9.6523 22.006C11.7052 22.417 13.8339 22.2095 15.7688 21.41C17.7037 20.6104 19.3578 19.2546 20.5217 17.5143C21.6856 15.774 22.3069 13.7275 22.3069 11.6339C22.3085 8.83396 21.1993 6.14778 19.2228 4.16468C17.2462 2.18158 14.5638 1.06353 11.7639 1.05585Z" fill="#036E8A"/>
</g>
</g>
<path d="M7.78198 10.601V10.401C7.78713 10.392 7.79148 10.3827 7.79498 10.373C7.81936 10.2326 7.8842 10.1023 7.98155 9.99822C8.07889 9.89412 8.20451 9.82071 8.34298 9.78698L13.029 8.37498C13.8243 8.13565 14.62 7.89665 15.416 7.65798C15.4668 7.64066 15.521 7.63585 15.574 7.64398C15.719 7.67698 15.774 7.81098 15.728 7.97798C15.1946 9.75131 14.664 11.525 14.136 13.299C13.958 13.893 13.7803 14.4876 13.603 15.083C13.5716 15.2016 13.5111 15.3105 13.4269 15.3997C13.3427 15.4889 13.2375 15.5557 13.121 15.594C13.08 15.608 13.037 15.618 12.996 15.63H12.796C12.7896 15.6261 12.7829 15.6227 12.776 15.62C12.6303 15.595 12.4954 15.5271 12.3886 15.425C12.2817 15.323 12.2077 15.1913 12.176 15.047C11.902 14.0783 11.627 13.1096 11.351 12.141C11.3466 12.1187 11.3357 12.0983 11.3197 12.0823C11.3037 12.0662 11.2832 12.0553 11.261 12.051C10.2803 11.7716 9.30032 11.4913 8.32098 11.21C8.16235 11.1719 8.02385 11.0755 7.93298 10.94C7.8749 10.8312 7.82509 10.7182 7.78398 10.602" fill="#036E8A"/>
</svg>
