<svg width="29" height="28" viewBox="0 0 29 28" fill="none" xmlns="http://www.w3.org/2000/svg">
<path d="M27.627 9.70806H19.445C19.2095 9.70859 18.98 9.63443 18.7893 9.49625C18.5987 9.35807 18.4568 9.16299 18.384 8.93906L15.859 1.15706C15.7864 0.933776 15.645 0.739203 15.455 0.601218C15.2651 0.463233 15.0363 0.388916 14.8015 0.388916C14.5667 0.388916 14.3379 0.463233 14.148 0.601218C13.958 0.739203 13.8166 0.933776 13.744 1.15706L11.215 8.93906C11.1428 9.16259 11.0016 9.35746 10.8117 9.49565C10.6218 9.63383 10.3929 9.7082 10.158 9.70806H1.976C1.74133 9.70801 1.51268 9.78227 1.32282 9.92019C1.13296 10.0581 0.991646 10.2526 0.919139 10.4758C0.846632 10.699 0.846656 10.9394 0.919208 11.1625C0.991759 11.3857 1.13311 11.5802 1.323 11.7181L7.943 16.5291C8.13227 16.6673 8.27291 16.862 8.34476 17.0851C8.41662 17.3082 8.416 17.5483 8.343 17.7711L5.814 25.5541C5.74145 25.7772 5.74143 26.0177 5.81395 26.2408C5.88647 26.464 6.0278 26.6585 6.21768 26.7964C6.40755 26.9344 6.63622 27.0086 6.8709 27.0085C7.10558 27.0085 7.3342 26.9341 7.524 26.7961L14.144 21.9871C14.3341 21.8494 14.5628 21.7752 14.7975 21.7752C15.0322 21.7752 15.2609 21.8494 15.451 21.9871L22.071 26.7961C22.2607 26.9353 22.4898 27.0107 22.7251 27.0114C22.9605 27.0121 23.19 26.938 23.3805 26.7999C23.5711 26.6617 23.7128 26.4666 23.7853 26.2427C23.8578 26.0188 23.8574 25.7777 23.784 25.5541L21.255 17.7711C21.1817 17.5483 21.1809 17.3081 21.2528 17.0849C21.3247 16.8618 21.4655 16.6671 21.655 16.5291L28.275 11.7181C28.4649 11.5802 28.6062 11.3857 28.6788 11.1625C28.7513 10.9394 28.7514 10.699 28.6789 10.4758C28.6063 10.2526 28.465 10.0581 28.2752 9.92019C28.0853 9.78227 27.8567 9.70801 27.622 9.70806" fill="#FF8000"/>
</svg>
